<svg xmlns="http://www.w3.org/2000/svg" viewBox="0 0 912 1400" width="912" height="1400" style="font-family: ui-monospace, monospace; font-size: 12px;"><defs><marker id="arrow" viewBox="0 0 10 10" refX="10" refY="5" markerWidth="8" markerHeight="8" orient="auto-start-reverse"><path d="M 0 0 L 10 5 L 0 10 z" fill="rgba(154,124,255,0.6)"></path></marker></defs><path d="M 336 103 C 296 103, 296 59, 256 59" fill="none" stroke="rgba(154,124,255,0.4)" stroke-width="1.5" marker-end="url(#arrow)"></path><path d="M 256 851 C 256 851, 256 59, 256 59" fill="none" stroke="rgba(154,124,255,0.4)" stroke-width="1.5" marker-end="url(#arrow)"></path><path d="M 256 873 C 456 873, 456 59, 656 59" fill="none" stroke="rgba(154,124,255,0.4)" stroke-width="1.5" marker-end="url(#arrow)"></path><path d="M 576 851 C 616 851, 616 59, 656 59" fill="none" stroke="rgba(154,124,255,0.4)" stroke-width="1.5" marker-end="url(#arrow)"></path><path d="M 656 807 C 456 807, 456 741, 256 741" fill="none" stroke="rgba(154,124,255,0.4)" stroke-width="1.5" marker-end="url(#arrow)"></path><path d="M 336 1049 C 296 1049, 296 59, 256 59" fill="none" stroke="rgba(154,124,255,0.4)" stroke-width="1.5" marker-end="url(#arrow)"></path><path d="M 336 1071 C 296 1071, 296 1027, 256 1027" fill="none" stroke="rgba(154,124,255,0.4)" stroke-width="1.5" marker-end="url(#arrow)"></path><path d="M 656 1071 C 456 1071, 456 59, 256 59" fill="none" stroke="rgba(154,124,255,0.4)" stroke-width="1.5" marker-end="url(#arrow)"></path><path d="M 656 1093 C 456 1093, 456 1027, 256 1027" fill="none" stroke="rgba(154,124,255,0.4)" stroke-width="1.5" marker-end="url(#arrow)"></path><path d="M 256 1247 C 256 1247, 256 59, 256 59" fill="none" stroke="rgba(154,124,255,0.4)" stroke-width="1.5" marker-end="url(#arrow)"></path><rect x="16" y="16" width="240" height="642" rx="8" fill="rgba(22,22,22,1)" stroke="rgba(255,255,255,0.1)" stroke-width="1"></rect><rect x="16" y="16" width="240" height="32" rx="8" fill="rgba(154,124,255,0.12)"></rect><rect x="16" y="44" width="240" height="4" fill="rgba(154,124,255,0.12)"></rect><text x="28" y="37" fill="rgba(255,255,255,1)" font-weight="600" font-size="13">User</text><text x="28" y="63" fill="rgba(255,255,255,0.85)">id</text><rect x="48.4" y="53" width="22" height="14" rx="3" fill="rgba(79,188,252,0.7)" opacity="0.2"></rect><text x="59.4" y="62" fill="rgba(79,188,252,0.7)" font-size="9" font-weight="600" text-anchor="middle">PK</text><text x="244" y="63" fill="rgba(255,255,255,0.4)" text-anchor="end" font-size="11">String</text><text x="28" y="85" fill="rgba(255,255,255,0.85)">email</text><text x="244" y="85" fill="rgba(255,255,255,0.4)" text-anchor="end" font-size="11">String</text><text x="28" y="107" fill="rgba(255,255,255,0.85)">username</text><text x="244" y="107" fill="rgba(255,255,255,0.4)" text-anchor="end" font-size="11">String</text><text x="28" y="129" fill="rgba(255,255,255,0.85)">password</text><text x="244" y="129" fill="rgba(255,255,255,0.4)" text-anchor="end" font-size="11">String?</text><text x="28" y="151" fill="rgba(255,255,255,0.85)">firstname</text><text x="244" y="151" fill="rgba(255,255,255,0.4)" text-anchor="end" font-size="11">String</text><text x="28" y="173" fill="rgba(255,255,255,0.85)">lastname</text><text x="244" y="173" fill="rgba(255,255,255,0.4)" text-anchor="end" font-size="11">String</text><text x="28" y="195" fill="rgba(255,255,255,0.85)">bio</text><text x="244" y="195" fill="rgba(255,255,255,0.4)" text-anchor="end" font-size="11">String?</text><text x="28" y="217" fill="rgba(255,255,255,0.85)">location</text><text x="244" y="217" fill="rgba(255,255,255,0.4)" text-anchor="end" font-size="11">String?</text><text x="28" y="239" fill="rgba(255,255,255,0.85)">website</text><text x="244" y="239" fill="rgba(255,255,255,0.4)" text-anchor="end" font-size="11">String?</text><text x="28" y="261" fill="rgba(255,255,255,0.85)">title</text><text x="244" y="261" fill="rgba(255,255,255,0.4)" text-anchor="end" font-size="11">String?</text><text x="28" y="283" fill="rgba(255,255,255,0.85)">avatar</text><text x="244" y="283" fill="rgba(255,255,255,0.4)" text-anchor="end" font-size="11">String</text><text x="28" y="305" fill="rgba(255,255,255,0.85)">isOnline</text><text x="244" y="305" fill="rgba(255,255,255,0.4)" text-anchor="end" font-size="11">Boolean</text><text x="28" y="327" fill="rgba(255,255,255,0.85)">role</text><text x="244" y="327" fill="rgba(255,255,255,0.4)" text-anchor="end" font-size="11">Role</text><text x="28" y="349" fill="rgba(255,255,255,0.85)">type</text><text x="244" y="349" fill="rgba(255,255,255,0.4)" text-anchor="end" font-size="11">UserType</text><text x="28" y="371" fill="rgba(255,255,255,0.85)">status</text><text x="244" y="371" fill="rgba(255,255,255,0.4)" text-anchor="end" font-size="11">UserStatus</text><text x="28" y="393" fill="rgba(255,255,255,0.85)">skills</text><text x="244" y="393" fill="rgba(255,255,255,0.4)" text-anchor="end" font-size="11">String[]</text><text x="28" y="415" fill="rgba(255,255,255,0.85)">rating</text><text x="244" y="415" fill="rgba(255,255,255,0.4)" text-anchor="end" font-size="11">Float</text><text x="28" y="437" fill="rgba(255,255,255,0.85)">reviewCount</text><text x="244" y="437" fill="rgba(255,255,255,0.4)" text-anchor="end" font-size="11">Int</text><text x="28" y="459" fill="rgba(255,255,255,0.85)">category</text><text x="244" y="459" fill="rgba(255,255,255,0.4)" text-anchor="end" font-size="11">String[]</text><text x="28" y="481" fill="rgba(255,255,255,0.85)">rate</text><text x="244" y="481" fill="rgba(255,255,255,0.4)" text-anchor="end" font-size="11">Float?</text><text x="28" y="503" fill="rgba(255,255,255,0.85)">expLevel</text><text x="244" y="503" fill="rgba(255,255,255,0.4)" text-anchor="end" font-size="11">String?</text><text x="28" y="525" fill="rgba(255,255,255,0.85)">twoFASecret</text><text x="244" y="525" fill="rgba(255,255,255,0.4)" text-anchor="end" font-size="11">String?</text><text x="28" y="547" fill="rgba(255,255,255,0.85)">twoFAEnabled</text><text x="244" y="547" fill="rgba(255,255,255,0.4)" text-anchor="end" font-size="11">Boolean</text><text x="28" y="569" fill="rgba(255,255,255,0.85)">oauthProvider</text><text x="244" y="569" fill="rgba(255,255,255,0.4)" text-anchor="end" font-size="11">String?</text><text x="28" y="591" fill="rgba(255,255,255,0.85)">oauthId</text><text x="244" y="591" fill="rgba(255,255,255,0.4)" text-anchor="end" font-size="11">String?</text><text x="28" y="613" fill="rgba(255,255,255,0.85)">createdAt</text><text x="244" y="613" fill="rgba(255,255,255,0.4)" text-anchor="end" font-size="11">DateTime</text><text x="28" y="635" fill="rgba(255,255,255,0.85)">updatedAt</text><text x="244" y="635" fill="rgba(255,255,255,0.4)" text-anchor="end" font-size="11">DateTime</text><rect x="336" y="16" width="240" height="180" rx="8" fill="rgba(22,22,22,1)" stroke="rgba(255,255,255,0.1)" stroke-width="1"></rect><rect x="336" y="16" width="240" height="32" rx="8" fill="rgba(154,124,255,0.12)"></rect><rect x="336" y="44" width="240" height="4" fill="rgba(154,124,255,0.12)"></rect><text x="348" y="37" fill="rgba(255,255,255,1)" font-weight="600" font-size="13">RefreshToken</text><text x="348" y="63" fill="rgba(255,255,255,0.85)">id</text><rect x="368.4" y="53" width="22" height="14" rx="3" fill="rgba(79,188,252,0.7)" opacity="0.2"></rect><text x="379.4" y="62" fill="rgba(79,188,252,0.7)" font-size="9" font-weight="600" text-anchor="middle">PK</text><text x="564" y="63" fill="rgba(255,255,255,0.4)" text-anchor="end" font-size="11">String</text><text x="348" y="85" fill="rgba(255,255,255,0.85)">token</text><text x="564" y="85" fill="rgba(255,255,255,0.4)" text-anchor="end" font-size="11">String</text><text x="348" y="107" fill="rgba(154,124,255,0.9)">userId</text><rect x="397.2" y="97" width="22" height="14" rx="3" fill="rgba(154,124,255,0.7)" opacity="0.2"></rect><text x="408.2" y="106" fill="rgba(154,124,255,0.7)" font-size="9" font-weight="600" text-anchor="middle">FK</text><text x="564" y="107" fill="rgba(255,255,255,0.4)" text-anchor="end" font-size="11">String</text><text x="348" y="129" fill="rgba(255,255,255,0.85)">revoked</text><text x="564" y="129" fill="rgba(255,255,255,0.4)" text-anchor="end" font-size="11">Boolean</text><text x="348" y="151" fill="rgba(255,255,255,0.85)">expiresAt</text><text x="564" y="151" fill="rgba(255,255,255,0.4)" text-anchor="end" font-size="11">DateTime</text><text x="348" y="173" fill="rgba(255,255,255,0.85)">createdAt</text><text x="564" y="173" fill="rgba(255,255,255,0.4)" text-anchor="end" font-size="11">DateTime</text><rect x="656" y="16" width="240" height="312" rx="8" fill="rgba(22,22,22,1)" stroke="rgba(255,255,255,0.1)" stroke-width="1"></rect><rect x="656" y="16" width="240" height="32" rx="8" fill="rgba(154,124,255,0.12)"></rect><rect x="656" y="44" width="240" height="4" fill="rgba(154,124,255,0.12)"></rect><text x="668" y="37" fill="rgba(255,255,255,1)" font-weight="600" font-size="13">Job</text><text x="668" y="63" fill="rgba(255,255,255,0.85)">id</text><rect x="688.4" y="53" width="22" height="14" rx="3" fill="rgba(79,188,252,0.7)" opacity="0.2"></rect><text x="699.4" y="62" fill="rgba(79,188,252,0.7)" font-size="9" font-weight="600" text-anchor="middle">PK</text><text x="884" y="63" fill="rgba(255,255,255,0.4)" text-anchor="end" font-size="11">String</text><text x="668" y="85" fill="rgba(255,255,255,0.85)">title</text><text x="884" y="85" fill="rgba(255,255,255,0.4)" text-anchor="end" font-size="11">String</text><text x="668" y="107" fill="rgba(255,255,255,0.85)">description</text><text x="884" y="107" fill="rgba(255,255,255,0.4)" text-anchor="end" font-size="11">String</text><text x="668" y="129" fill="rgba(255,255,255,0.85)">budget</text><text x="884" y="129" fill="rgba(255,255,255,0.4)" text-anchor="end" font-size="11">Float</text><text x="668" y="151" fill="rgba(255,255,255,0.85)">category</text><text x="884" y="151" fill="rgba(255,255,255,0.4)" text-anchor="end" font-size="11">String</text><text x="668" y="173" fill="rgba(255,255,255,0.85)">status</text><text x="884" y="173" fill="rgba(255,255,255,0.4)" text-anchor="end" font-size="11">JobStatus</text><text x="668" y="195" fill="rgba(255,255,255,0.85)">skills</text><text x="884" y="195" fill="rgba(255,255,255,0.4)" text-anchor="end" font-size="11">String[]</text><text x="668" y="217" fill="rgba(255,255,255,0.85)">deadline</text><text x="884" y="217" fill="rgba(255,255,255,0.4)" text-anchor="end" font-size="11">DateTime?</text><text x="668" y="239" fill="rgba(255,255,255,0.85)">postedByName</text><text x="884" y="239" fill="rgba(255,255,255,0.4)" text-anchor="end" font-size="11">String?</text><text x="668" y="261" fill="rgba(255,255,255,0.85)">clientId</text><text x="884" y="261" fill="rgba(255,255,255,0.4)" text-anchor="end" font-size="11">String</text><text x="668" y="283" fill="rgba(255,255,255,0.85)">createdAt</text><text x="884" y="283" fill="rgba(255,255,255,0.4)" text-anchor="end" font-size="11">DateTime</text><text x="668" y="305" fill="rgba(255,255,255,0.85)">updatedAt</text><text x="884" y="305" fill="rgba(255,255,255,0.4)" text-anchor="end" font-size="11">DateTime</text><rect x="16" y="698" width="240" height="224" rx="8" fill="rgba(22,22,22,1)" stroke="rgba(255,255,255,0.1)" stroke-width="1"></rect><rect x="16" y="698" width="240" height="32" rx="8" fill="rgba(154,124,255,0.12)"></rect><rect x="16" y="726" width="240" height="4" fill="rgba(154,124,255,0.12)"></rect><text x="28" y="719" fill="rgba(255,255,255,1)" font-weight="600" font-size="13">Proposal</text><text x="28" y="745" fill="rgba(255,255,255,0.85)">id</text><rect x="48.4" y="735" width="22" height="14" rx="3" fill="rgba(79,188,252,0.7)" opacity="0.2"></rect><text x="59.4" y="744" fill="rgba(79,188,252,0.7)" font-size="9" font-weight="600" text-anchor="middle">PK</text><text x="244" y="745" fill="rgba(255,255,255,0.4)" text-anchor="end" font-size="11">String</text><text x="28" y="767" fill="rgba(255,255,255,0.85)">coverLetter</text><text x="244" y="767" fill="rgba(255,255,255,0.4)" text-anchor="end" font-size="11">String</text><text x="28" y="789" fill="rgba(255,255,255,0.85)">proposedBudget</text><text x="244" y="789" fill="rgba(255,255,255,0.4)" text-anchor="end" font-size="11">Float</text><text x="28" y="811" fill="rgba(255,255,255,0.85)">deliveryDays</text><text x="244" y="811" fill="rgba(255,255,255,0.4)" text-anchor="end" font-size="11">Int</text><text x="28" y="833" fill="rgba(255,255,255,0.85)">status</text><text x="244" y="833" fill="rgba(255,255,255,0.4)" text-anchor="end" font-size="11">ProposalStatus</text><text x="28" y="855" fill="rgba(154,124,255,0.9)">freelancerId</text><rect x="120.4" y="845" width="22" height="14" rx="3" fill="rgba(154,124,255,0.7)" opacity="0.2"></rect><text x="131.4" y="854" fill="rgba(154,124,255,0.7)" font-size="9" font-weight="600" text-anchor="middle">FK</text><text x="244" y="855" fill="rgba(255,255,255,0.4)" text-anchor="end" font-size="11">String</text><text x="28" y="877" fill="rgba(154,124,255,0.9)">jobId</text><rect x="70" y="867" width="22" height="14" rx="3" fill="rgba(154,124,255,0.7)" opacity="0.2"></rect><text x="81" y="876" fill="rgba(154,124,255,0.7)" font-size="9" font-weight="600" text-anchor="middle">FK</text><text x="244" y="877" fill="rgba(255,255,255,0.4)" text-anchor="end" font-size="11">String</text><text x="28" y="899" fill="rgba(255,255,255,0.85)">createdAt</text><text x="244" y="899" fill="rgba(255,255,255,0.4)" text-anchor="end" font-size="11">DateTime</text><rect x="336" y="698" width="240" height="202" rx="8" fill="rgba(22,22,22,1)" stroke="rgba(255,255,255,0.1)" stroke-width="1"></rect><rect x="336" y="698" width="240" height="32" rx="8" fill="rgba(154,124,255,0.12)"></rect><rect x="336" y="726" width="240" height="4" fill="rgba(154,124,255,0.12)"></rect><text x="348" y="719" fill="rgba(255,255,255,1)" font-weight="600" font-size="13">Review</text><text x="348" y="745" fill="rgba(255,255,255,0.85)">id</text><rect x="368.4" y="735" width="22" height="14" rx="3" fill="rgba(79,188,252,0.7)" opacity="0.2"></rect><text x="379.4" y="744" fill="rgba(79,188,252,0.7)" font-size="9" font-weight="600" text-anchor="middle">PK</text><text x="564" y="745" fill="rgba(255,255,255,0.4)" text-anchor="end" font-size="11">String</text><text x="348" y="767" fill="rgba(255,255,255,0.85)">rating</text><text x="564" y="767" fill="rgba(255,255,255,0.4)" text-anchor="end" font-size="11">Int</text><text x="348" y="789" fill="rgba(255,255,255,0.85)">comment</text><text x="564" y="789" fill="rgba(255,255,255,0.4)" text-anchor="end" font-size="11">String</text><text x="348" y="811" fill="rgba(255,255,255,0.85)">fromUserId</text><text x="564" y="811" fill="rgba(255,255,255,0.4)" text-anchor="end" font-size="11">String</text><text x="348" y="833" fill="rgba(255,255,255,0.85)">toUserId</text><text x="564" y="833" fill="rgba(255,255,255,0.4)" text-anchor="end" font-size="11">String</text><text x="348" y="855" fill="rgba(154,124,255,0.9)">jobId</text><rect x="390" y="845" width="22" height="14" rx="3" fill="rgba(154,124,255,0.7)" opacity="0.2"></rect><text x="401" y="854" fill="rgba(154,124,255,0.7)" font-size="9" font-weight="600" text-anchor="middle">FK</text><text x="564" y="855" fill="rgba(255,255,255,0.4)" text-anchor="end" font-size="11">String</text><text x="348" y="877" fill="rgba(255,255,255,0.85)">createdAt</text><text x="564" y="877" fill="rgba(255,255,255,0.4)" text-anchor="end" font-size="11">DateTime</text><rect x="656" y="698" width="240" height="246" rx="8" fill="rgba(22,22,22,1)" stroke="rgba(255,255,255,0.1)" stroke-width="1"></rect><rect x="656" y="698" width="240" height="32" rx="8" fill="rgba(154,124,255,0.12)"></rect><rect x="656" y="726" width="240" height="4" fill="rgba(154,124,255,0.12)"></rect><text x="668" y="719" fill="rgba(255,255,255,1)" font-weight="600" font-size="13">Payment</text><text x="668" y="745" fill="rgba(255,255,255,0.85)">id</text><rect x="688.4" y="735" width="22" height="14" rx="3" fill="rgba(79,188,252,0.7)" opacity="0.2"></rect><text x="699.4" y="744" fill="rgba(79,188,252,0.7)" font-size="9" font-weight="600" text-anchor="middle">PK</text><text x="884" y="745" fill="rgba(255,255,255,0.4)" text-anchor="end" font-size="11">String</text><text x="668" y="767" fill="rgba(255,255,255,0.85)">amount</text><text x="884" y="767" fill="rgba(255,255,255,0.4)" text-anchor="end" font-size="11">Float</text><text x="668" y="789" fill="rgba(255,255,255,0.85)">status</text><text x="884" y="789" fill="rgba(255,255,255,0.4)" text-anchor="end" font-size="11">PaymentStatus</text><text x="668" y="811" fill="rgba(154,124,255,0.9)">proposalId</text><rect x="746" y="801" width="22" height="14" rx="3" fill="rgba(154,124,255,0.7)" opacity="0.2"></rect><text x="757" y="810" fill="rgba(154,124,255,0.7)" font-size="9" font-weight="600" text-anchor="middle">FK</text><text x="884" y="811" fill="rgba(255,255,255,0.4)" text-anchor="end" font-size="11">String</text><text x="668" y="833" fill="rgba(255,255,255,0.85)">jobId</text><text x="884" y="833" fill="rgba(255,255,255,0.4)" text-anchor="end" font-size="11">String</text><text x="668" y="855" fill="rgba(255,255,255,0.85)">clientId</text><text x="884" y="855" fill="rgba(255,255,255,0.4)" text-anchor="end" font-size="11">String</text><text x="668" y="877" fill="rgba(255,255,255,0.85)">freelancerId</text><text x="884" y="877" fill="rgba(255,255,255,0.4)" text-anchor="end" font-size="11">String</text><text x="668" y="899" fill="rgba(255,255,255,0.85)">createdAt</text><text x="884" y="899" fill="rgba(255,255,255,0.4)" text-anchor="end" font-size="11">DateTime</text><text x="668" y="921" fill="rgba(255,255,255,0.85)">updatedAt</text><text x="884" y="921" fill="rgba(255,255,255,0.4)" text-anchor="end" font-size="11">DateTime</text><rect x="16" y="984" width="240" height="158" rx="8" fill="rgba(22,22,22,1)" stroke="rgba(255,255,255,0.1)" stroke-width="1"></rect><rect x="16" y="984" width="240" height="32" rx="8" fill="rgba(154,124,255,0.12)"></rect><rect x="16" y="1012" width="240" height="4" fill="rgba(154,124,255,0.12)"></rect><text x="28" y="1005" fill="rgba(255,255,255,1)" font-weight="600" font-size="13">Convers</text><text x="28" y="1031" fill="rgba(255,255,255,0.85)">id</text><rect x="48.4" y="1021" width="22" height="14" rx="3" fill="rgba(79,188,252,0.7)" opacity="0.2"></rect><text x="59.4" y="1030" fill="rgba(79,188,252,0.7)" font-size="9" font-weight="600" text-anchor="middle">PK</text><text x="244" y="1031" fill="rgba(255,255,255,0.4)" text-anchor="end" font-size="11">Int</text><text x="28" y="1053" fill="rgba(255,255,255,0.85)">name</text><text x="244" y="1053" fill="rgba(255,255,255,0.4)" text-anchor="end" font-size="11">String?</text><text x="28" y="1075" fill="rgba(255,255,255,0.85)">type</text><text x="244" y="1075" fill="rgba(255,255,255,0.4)" text-anchor="end" font-size="11">ConversType</text><text x="28" y="1097" fill="rgba(255,255,255,0.85)">created_at</text><text x="244" y="1097" fill="rgba(255,255,255,0.4)" text-anchor="end" font-size="11">DateTime</text><text x="28" y="1119" fill="rgba(255,255,255,0.85)">updated_at</text><text x="244" y="1119" fill="rgba(255,255,255,0.4)" text-anchor="end" font-size="11">DateTime</text><rect x="336" y="984" width="240" height="136" rx="8" fill="rgba(22,22,22,1)" stroke="rgba(255,255,255,0.1)" stroke-width="1"></rect><rect x="336" y="984" width="240" height="32" rx="8" fill="rgba(154,124,255,0.12)"></rect><rect x="336" y="1012" width="240" height="4" fill="rgba(154,124,255,0.12)"></rect><text x="348" y="1005" fill="rgba(255,255,255,1)" font-weight="600" font-size="13">ConversMember</text><text x="348" y="1031" fill="rgba(255,255,255,0.85)">id</text><rect x="368.4" y="1021" width="22" height="14" rx="3" fill="rgba(79,188,252,0.7)" opacity="0.2"></rect><text x="379.4" y="1030" fill="rgba(79,188,252,0.7)" font-size="9" font-weight="600" text-anchor="middle">PK</text><text x="564" y="1031" fill="rgba(255,255,255,0.4)" text-anchor="end" font-size="11">Int</text><text x="348" y="1053" fill="rgba(154,124,255,0.9)">user_id</text><rect x="404.4" y="1043" width="22" height="14" rx="3" fill="rgba(154,124,255,0.7)" opacity="0.2"></rect><text x="415.4" y="1052" fill="rgba(154,124,255,0.7)" font-size="9" font-weight="600" text-anchor="middle">FK</text><text x="564" y="1053" fill="rgba(255,255,255,0.4)" text-anchor="end" font-size="11">String</text><text x="348" y="1075" fill="rgba(154,124,255,0.9)">convers_id</text><rect x="426" y="1065" width="22" height="14" rx="3" fill="rgba(154,124,255,0.7)" opacity="0.2"></rect><text x="437" y="1074" fill="rgba(154,124,255,0.7)" font-size="9" font-weight="600" text-anchor="middle">FK</text><text x="564" y="1075" fill="rgba(255,255,255,0.4)" text-anchor="end" font-size="11">Int</text><text x="348" y="1097" fill="rgba(255,255,255,0.85)">joined_at</text><text x="564" y="1097" fill="rgba(255,255,255,0.4)" text-anchor="end" font-size="11">DateTime</text><rect x="656" y="984" width="240" height="158" rx="8" fill="rgba(22,22,22,1)" stroke="rgba(255,255,255,0.1)" stroke-width="1"></rect><rect x="656" y="984" width="240" height="32" rx="8" fill="rgba(154,124,255,0.12)"></rect><rect x="656" y="1012" width="240" height="4" fill="rgba(154,124,255,0.12)"></rect><text x="668" y="1005" fill="rgba(255,255,255,1)" font-weight="600" font-size="13">Message</text><text x="668" y="1031" fill="rgba(255,255,255,0.85)">id</text><rect x="688.4" y="1021" width="22" height="14" rx="3" fill="rgba(79,188,252,0.7)" opacity="0.2"></rect><text x="699.4" y="1030" fill="rgba(79,188,252,0.7)" font-size="9" font-weight="600" text-anchor="middle">PK</text><text x="884" y="1031" fill="rgba(255,255,255,0.4)" text-anchor="end" font-size="11">Int</text><text x="668" y="1053" fill="rgba(255,255,255,0.85)">content</text><text x="884" y="1053" fill="rgba(255,255,255,0.4)" text-anchor="end" font-size="11">String</text><text x="668" y="1075" fill="rgba(154,124,255,0.9)">sender_id</text><rect x="738.8" y="1065" width="22" height="14" rx="3" fill="rgba(154,124,255,0.7)" opacity="0.2"></rect><text x="749.8" y="1074" fill="rgba(154,124,255,0.7)" font-size="9" font-weight="600" text-anchor="middle">FK</text><text x="884" y="1075" fill="rgba(255,255,255,0.4)" text-anchor="end" font-size="11">String</text><text x="668" y="1097" fill="rgba(154,124,255,0.9)">convers_id</text><rect x="746" y="1087" width="22" height="14" rx="3" fill="rgba(154,124,255,0.7)" opacity="0.2"></rect><text x="757" y="1096" fill="rgba(154,124,255,0.7)" font-size="9" font-weight="600" text-anchor="middle">FK</text><text x="884" y="1097" fill="rgba(255,255,255,0.4)" text-anchor="end" font-size="11">Int</text><text x="668" y="1119" fill="rgba(255,255,255,0.85)">created_at</text><text x="884" y="1119" fill="rgba(255,255,255,0.4)" text-anchor="end" font-size="11">DateTime</text><rect x="16" y="1182" width="240" height="202" rx="8" fill="rgba(22,22,22,1)" stroke="rgba(255,255,255,0.1)" stroke-width="1"></rect><rect x="16" y="1182" width="240" height="32" rx="8" fill="rgba(154,124,255,0.12)"></rect><rect x="16" y="1210" width="240" height="4" fill="rgba(154,124,255,0.12)"></rect><text x="28" y="1203" fill="rgba(255,255,255,1)" font-weight="600" font-size="13">Notification</text><text x="28" y="1229" fill="rgba(255,255,255,0.85)">id</text><rect x="48.4" y="1219" width="22" height="14" rx="3" fill="rgba(79,188,252,0.7)" opacity="0.2"></rect><text x="59.4" y="1228" fill="rgba(79,188,252,0.7)" font-size="9" font-weight="600" text-anchor="middle">PK</text><text x="244" y="1229" fill="rgba(255,255,255,0.4)" text-anchor="end" font-size="11">Int</text><text x="28" y="1251" fill="rgba(154,124,255,0.9)">user_id</text><rect x="84.4" y="1241" width="22" height="14" rx="3" fill="rgba(154,124,255,0.7)" opacity="0.2"></rect><text x="95.4" y="1250" fill="rgba(154,124,255,0.7)" font-size="9" font-weight="600" text-anchor="middle">FK</text><text x="244" y="1251" fill="rgba(255,255,255,0.4)" text-anchor="end" font-size="11">String</text><text x="28" y="1273" fill="rgba(255,255,255,0.85)">type</text><text x="244" y="1273" fill="rgba(255,255,255,0.4)" text-anchor="end" font-size="11">NotifType</text><text x="28" y="1295" fill="rgba(255,255,255,0.85)">title</text><text x="244" y="1295" fill="rgba(255,255,255,0.4)" text-anchor="end" font-size="11">String</text><text x="28" y="1317" fill="rgba(255,255,255,0.85)">body</text><text x="244" y="1317" fill="rgba(255,255,255,0.4)" text-anchor="end" font-size="11">String?</text><text x="28" y="1339" fill="rgba(255,255,255,0.85)">is_read</text><text x="244" y="1339" fill="rgba(255,255,255,0.4)" text-anchor="end" font-size="11">Boolean</text><text x="28" y="1361" fill="rgba(255,255,255,0.85)">created_at</text><text x="244" y="1361" fill="rgba(255,255,255,0.4)" text-anchor="end" font-size="11">DateTime</text><rect x="336" y="1182" width="240" height="180" rx="8" fill="rgba(22,22,22,1)" stroke="rgba(255,255,255,0.1)" stroke-width="1"></rect><rect x="336" y="1182" width="240" height="32" rx="8" fill="rgba(154,124,255,0.12)"></rect><rect x="336" y="1210" width="240" height="4" fill="rgba(154,124,255,0.12)"></rect><text x="348" y="1203" fill="rgba(255,255,255,1)" font-weight="600" font-size="13">FriendRequest</text><text x="348" y="1229" fill="rgba(255,255,255,0.85)">id</text><rect x="368.4" y="1219" width="22" height="14" rx="3" fill="rgba(79,188,252,0.7)" opacity="0.2"></rect><text x="379.4" y="1228" fill="rgba(79,188,252,0.7)" font-size="9" font-weight="600" text-anchor="middle">PK</text><text x="564" y="1229" fill="rgba(255,255,255,0.4)" text-anchor="end" font-size="11">Int</text><text x="348" y="1251" fill="rgba(255,255,255,0.85)">sender_id</text><text x="564" y="1251" fill="rgba(255,255,255,0.4)" text-anchor="end" font-size="11">String</text><text x="348" y="1273" fill="rgba(255,255,255,0.85)">receiver_id</text><text x="564" y="1273" fill="rgba(255,255,255,0.4)" text-anchor="end" font-size="11">String</text><text x="348" y="1295" fill="rgba(255,255,255,0.85)">status</text><text x="564" y="1295" fill="rgba(255,255,255,0.4)" text-anchor="end" font-size="11">FriendReqStatus</text><text x="348" y="1317" fill="rgba(255,255,255,0.85)">created_at</text><text x="564" y="1317" fill="rgba(255,255,255,0.4)" text-anchor="end" font-size="11">DateTime</text><text x="348" y="1339" fill="rgba(255,255,255,0.85)">updated_at</text><text x="564" y="1339" fill="rgba(255,255,255,0.4)" text-anchor="end" font-size="11">DateTime</text></svg>